<?xml version="1.0" standalone="no"?>
<!DOCTYPE svg PUBLIC "-//W3C//DTD SVG 20010904//EN"
 "http://www.w3.org/TR/2001/REC-SVG-20010904/DTD/svg10.dtd">
<svg version="1.0" xmlns="http://www.w3.org/2000/svg"
 width="512.000000pt" height="512.000000pt" viewBox="0 0 512.000000 512.000000"
 preserveAspectRatio="xMidYMid meet">

<g transform="translate(0.000000,512.000000) scale(0.100000,-0.100000)"
fill="#000000" stroke="none">
<path d="M2085 4453 c-44 -23 -74 -53 -98 -98 -19 -34 -22 -56 -22 -155 1
-135 28 -248 99 -416 105 -249 316 -472 501 -530 l53 -17 27 -96 c15 -53 56
-183 90 -290 l64 -194 -18 -46 c-28 -71 -60 -213 -79 -347 l-17 -122 -100 -78
c-95 -74 -247 -199 -328 -271 -31 -28 -44 -33 -70 -28 -18 3 -95 9 -172 15
-179 13 -324 0 -444 -39 l-87 -28 -40 33 c-54 47 -137 89 -219 112 -207 60
-352 24 -501 -123 -79 -78 -194 -246 -255 -371 -78 -161 -123 -401 -123 -663
l-1 -154 60 -33 c81 -45 172 -61 264 -45 65 10 158 40 188 59 9 5 16 65 23
177 6 94 20 210 30 259 22 100 71 214 105 246 l23 22 44 -25 c89 -52 248 -77
373 -60 l60 8 85 -71 c569 -482 1394 -499 2085 -44 439 290 681 681 751 1214
22 165 15 483 -15 649 -41 232 -94 402 -180 582 -83 173 -140 256 -260 375
-88 88 -120 113 -191 148 -119 59 -192 75 -330 75 -185 -1 -354 -55 -557 -181
-137 -85 -165 -95 -232 -87 -84 9 -89 13 -115 63 -45 88 -125 404 -126 494 0
22 -8 32 -41 49 -99 50 -242 65 -304 32z m170 -152 c15 -6 23 -30 41 -118 62
-316 143 -481 251 -513 21 -6 79 -13 128 -17 108 -6 162 10 280 88 187 121
314 169 476 176 136 7 212 -11 314 -72 276 -166 489 -629 536 -1165 34 -394
-58 -798 -244 -1075 -240 -357 -676 -628 -1142 -710 -151 -27 -388 -25 -532 3
-298 59 -509 169 -740 386 l-53 49 -57 -12 c-31 -6 -100 -11 -153 -11 -107 0
-166 15 -239 62 -71 45 -129 37 -200 -27 -112 -101 -183 -304 -200 -572 -5
-90 -11 -127 -22 -134 -20 -12 -156 -11 -181 2 -19 10 -20 17 -13 117 15 239
56 427 121 556 87 173 219 337 306 380 112 56 288 22 413 -79 55 -44 98 -65
135 -65 17 0 72 14 123 31 82 28 108 32 237 36 96 3 193 0 288 -11 l142 -16
138 117 c183 156 376 309 412 328 28 14 30 19 30 73 0 131 57 402 104 494 l24
47 -28 73 c-35 90 -127 382 -170 540 l-32 118 -37 6 c-137 23 -276 113 -377
247 -52 68 -131 226 -163 326 -50 153 -63 297 -31 336 13 16 80 20 115 6z"/>
</g>
</svg>
