<?xml version="1.0" standalone="no"?>
<!DOCTYPE svg PUBLIC "-//W3C//DTD SVG 20010904//EN"
 "http://www.w3.org/TR/2001/REC-SVG-20010904/DTD/svg10.dtd">
<svg version="1.0" xmlns="http://www.w3.org/2000/svg"
 width="512.000000pt" height="512.000000pt" viewBox="0 0 512.000000 512.000000"
 preserveAspectRatio="xMidYMid meet">

<g transform="translate(0.000000,512.000000) scale(0.100000,-0.100000)"
fill="#000000" stroke="none">
<path d="M2248 5063 l-128 -4 0 -102 c0 -339 102 -691 276 -953 108 -164 276
-315 439 -396 l80 -40 49 -192 c62 -245 136 -469 187 -567 l41 -78 -20 -58
c-61 -176 -125 -440 -138 -565 -5 -55 -11 -70 -30 -83 -73 -48 -451 -362 -546
-453 l-57 -55 -128 14 c-164 18 -474 18 -573 0 -93 -17 -172 -45 -195 -71 -17
-19 -19 -18 -89 39 -143 117 -254 176 -396 212 -250 63 -471 -49 -630 -321
-155 -265 -280 -769 -280 -1129 l0 -151 235 0 235 0 0 68 c0 98 18 279 41 422
45 269 127 443 229 484 39 15 40 15 87 -14 86 -53 156 -72 293 -77 94 -4 142
-1 192 11 l68 16 67 -66 c262 -257 666 -454 1064 -519 358 -59 624 -54 874 15
425 118 831 434 1133 884 225 334 344 633 394 986 20 147 17 642 -5 795 -68
461 -207 784 -434 1010 -207 205 -462 304 -791 307 -129 1 -155 -2 -212 -22
-133 -47 -274 -129 -458 -268 -109 -82 -133 -96 -173 -100 -84 -8 -168 44
-237 148 -102 153 -192 469 -207 730 -9 158 -5 150 -73 148 -31 -1 -114 -4
-184 -5z"/>
</g>
</svg>
